<svg xmlns="http://www.w3.org/2000/svg" viewBox="0 0 370.85 76.44"><title>BAEMIN logo</title><path d="M454,473.78v76.44h51V535.47H468.27V519.37h25V504.63h-25V488.53h36.65V473.78Zm127.39,0v14.75H601v46.94H581.36v14.75h53.79V535.47H615.47V488.53h19.67V473.78ZM360.15,505.3H340.86V488.53h18.8c5.36,0,8,3.29,8,8.38s-2.13,8.38-7.5,8.38m-.5,30.17h-18.8V518.71h19.3c5.37,0,7.5,3.29,7.5,8.38s-2.63,8.38-8,8.38m20.71-37.21v-2.68c0-12.07-9.14-21.79-20.5-21.79H326.57v76.44h33.29c11.35,0,20.5-9.72,20.5-21.79v-2.68A17.8,17.8,0,0,0,374,512a17.79,17.79,0,0,0,6.4-13.75m284-24.47,17.69,46.81a.55.55,0,0,0,1.06-.2V473.78h14.31v76.44H679.53l-17.68-46.78a.55.55,0,0,0-1.07.21v46.58H646.47V473.78ZM554.48,503.41l-4.82,17.71a6.73,6.73,0,0,1-13,0l-4.83-17.76a.54.54,0,0,0-1.05.15v46.71H516.25V473.78H534l8.59,31.16a.54.54,0,0,0,1.05,0l8.59-31.16H570v76.44H555.55V503.56a.54.54,0,0,0-1.06-.15m-147,17.69,7.76-32.81a.54.54,0,0,1,1.06,0L424,521.1Zm22.83-35.52a14.88,14.88,0,0,0-5.28-8.49,14.69,14.69,0,0,0-18.58,0,15,15,0,0,0-5.22,8.49L386,550.22h14.54L404,535.66h23.48l3.45,14.56h14.54l-15.19-64.63Z" transform="translate(-326.57 -473.78)" style="fill:#3ac5c9"/></svg>