<?xml version="1.0" encoding="iso-8859-1"?>
<!-- Generator: Adobe Illustrator 19.0.0, SVG Export Plug-In . SVG Version: 6.00 Build 0)  -->
<svg version="1.1" id="Layer_1" xmlns="http://www.w3.org/2000/svg" xmlns:xlink="http://www.w3.org/1999/xlink" x="0px" y="0px"
	 viewBox="0 0 511.999 511.999" style="enable-background:new 0 0 511.999 511.999;" xml:space="preserve">
<g>
	<g>
		<path d="M506.479,241.599l-61.631-52.367c-2.832-2.406-6.426-3.727-10.142-3.727h-56.005v-24.507
			c0-8.65-7.013-15.663-15.663-15.663H230.353c-16.427-29.814-48.162-50.062-84.542-50.062c-53.186,0-96.455,43.27-96.455,96.455
			c0,4.33,0.291,8.594,0.848,12.775H15.663C7.013,204.503,0,211.516,0,220.166s7.013,15.663,15.663,15.663h38.388v21.054
			c-8.39,0.296-15.107,7.173-15.107,15.635s6.716,15.34,15.107,15.635v79.638c0,8.65,7.013,15.663,15.663,15.663h33.635
			c6.547,19.321,24.844,33.271,46.348,33.271c21.505,0,39.8-13.95,46.349-33.271h166.991c4.41,0,8.386-1.828,11.233-4.761h7.722
			c4.97,21.75,24.461,38.031,47.694,38.031s42.724-16.282,47.694-38.031h18.955c8.65,0,15.663-7.013,15.663-15.663V253.534
			C512,248.939,509.982,244.575,506.479,241.599z M241.085,176.661h106.289v24.506v15.063H239.108
			c2.057-7.827,3.157-16.038,3.157-24.501C242.265,186.603,241.859,181.572,241.085,176.661z M145.811,126.598
			c35.911,0,65.129,29.216,65.129,65.129c0,35.912-29.216,65.129-65.129,65.129s-65.129-29.216-65.129-65.129
			C80.682,155.815,109.899,126.598,145.811,126.598z M149.7,385.4c-9.709,0-17.609-7.898-17.609-17.608s7.898-17.608,17.609-17.608
			c9.708-0.001,17.607,7.898,17.607,17.608S159.409,385.4,149.7,385.4z M347.375,352.129H196.048
			c-6.547-19.321-24.844-33.271-46.349-33.271c-21.506,0-39.801,13.95-46.348,33.271H85.378v-63.947h60.434
			c32.397,0,61.114-16.055,78.615-40.626h122.949V352.129z M429.688,385.4c-9.709,0-17.608-7.898-17.608-17.608
			s7.898-17.608,17.608-17.608s17.608,7.898,17.608,17.608S439.397,385.4,429.688,385.4z M480.674,347.368h-6.536
			c-7.754-16.81-24.757-28.51-44.451-28.51s-36.697,11.701-44.451,28.51H378.7V216.83h50.25l51.724,43.949V347.368z"/>
	</g>
</g>
<g>
	<g>
		<path d="M421.888,247.805h-11.863c-8.65,0-15.663,7.013-15.663,15.663s7.013,15.663,15.663,15.663h11.863
			c8.65,0,15.663-7.013,15.663-15.663S430.539,247.805,421.888,247.805z"/>
	</g>
</g>
<g>
	<g>
		<path d="M168.572,184.262H155.87h-2.593v-3.197v-19.314c0-8.65-7.013-15.663-15.663-15.663s-15.663,7.013-15.663,15.663v38.174
			c-0.001,8.651,7.012,15.663,15.662,15.663h30.959c8.65,0,15.663-7.013,15.663-15.663S177.222,184.262,168.572,184.262z"/>
	</g>
</g>
<g>
</g>
<g>
</g>
<g>
</g>
<g>
</g>
<g>
</g>
<g>
</g>
<g>
</g>
<g>
</g>
<g>
</g>
<g>
</g>
<g>
</g>
<g>
</g>
<g>
</g>
<g>
</g>
<g>
</g>
</svg>
